{
  "title": "Star Wars Rebels S03E01 Steps into Shadow 720P WEBRip",
  "uid": 15895041,
  "size": 1114220230,
  "categoryP": "video",
  "categoryS": "hd___tv_shows",
  "magnet": "?xt=urn:btih:719c73c9b85f650141b3c6b368573261eb4a9dcd&amp;dn=Star+Wars+Rebels+S03E01+Steps+into+Shadow+720P+WEBRip&amp;tr=udp%3A%2F%2Ftracker.leechers-paradise.org%3A6969&amp;tr=udp%3A%2F%2Fzer0day.ch%3A1337&amp;tr=udp%3A%2F%2Fopen.demonii.com%3A1337&amp;tr=udp%3A%2F%2Ftracker.coppersurfer.tk%3A6969&amp;tr=udp%3A%2F%2Fexodus.desync.com%3A6969",
  "seeders": 1207,
  "leechers": 235,
  "uploader": "jmanwf",
  "files": 1,
  "time": 1474785497,
  "description": "A rebel mission led by a more powerful Ezra goes awry; Kanan returns to help the Ghost crew; Grand Admiral Thrawn emerges as a new threat\r\n\r\n\r\nVideo\r\nID : 1\r\nFormat : AVC\r\nFormat/Info : Advanced Video Codec\r\nFormat profile :   \r\nFormat settings, CABAC : Yes\r\nFormat settings, ReFrames : 2 frames\r\nCodec ID : V_MPEG4/ISO/AVC\r\nDuration : 43 min 22 s\r\nBit rate : 3 360 kb/s\r\nWidth : 1 280 pixels\r\nHeight : 720 pixels\r\nDisplay aspect ratio : 16:9\r\nFrame rate mode : Constant\r\nFrame rate : 23.976 (24000/1001) FPS\r\nOriginal frame rate : 24.000 FPS\r\nColor space : YUV\r\nChroma subsampling : 4:2:0\r\nBit depth : 8 bits\r\nScan type : Progressive\r\nBits/(Pixel*Frame) : 0.152\r\nStream size : 1 023 MiB (96%)\r\nWriting library : x264 core 148 r2579M 73ae2d1\r\nLanguage : English\r\nDefault : Yes\r\nForced : No\r\n\r\nAudio\r\nID : 2\r\nFormat : AAC\r\nFormat/Info : Advanced Audio Codec\r\nFormat profile : HE-AAC / LC\r\nCodec ID : A_AAC\r\nDuration : 43 min 22 s\r\nBit rate : 127 kb/s\r\nChannel(s) : 2 channels\r\nChannel positions : Front: L R\r\nSampling rate : 48.0 kHz / 24.0 kHz\r\nFrame rate : 23.438 FPS (1024 spf)\r\nCompression mode : Lossy\r\nStream size : 39.3 MiB (4%)\r\nLanguage : English\r\nDefault : Yes\r\nForced : No\r\n\r\nText\r\nID : 3\r\nFormat : UTF-8\r\nCodec ID : S_TEXT/UTF8\r\nCodec ID/Info : UTF-8 Plain Text\r\nDuration : 42 min 31 s\r\nBit rate : 67 b/s\r\nCount of elements : 698\r\nStream size : 21.2 KiB (0%)\r\nLanguage : English\r\nDefault : Yes\r\nForced : No",
  "parsed": {
    "xt": "urn:btih:719c73c9b85f650141b3c6b368573261eb4a9dcd",
    "dn": "Star Wars Rebels S03E01 Steps into Shadow 720P WEBRip",
    "tr": [
      "udp://exodus.desync.com:6969",
      "udp://open.demonii.com:1337",
      "udp://tracker.coppersurfer.tk:6969",
      "udp://tracker.leechers-paradise.org:6969",
      "udp://zer0day.ch:1337"
    ],
    "infoHash": "719c73c9b85f650141b3c6b368573261eb4a9dcd",
    "infoHashBuffer": {
      "type": "Buffer",
      "data": [
        113,
        156,
        115,
        201,
        184,
        95,
        101,
        1,
        65,
        179,
        198,
        179,
        104,
        87,
        50,
        97,
        235,
        74,
        157,
        205
      ]
    },
    "name": "Star Wars Rebels S03E01 Steps into Shadow 720P WEBRip",
    "announce": [
      "udp://exodus.desync.com:6969",
      "udp://open.demonii.com:1337",
      "udp://tracker.coppersurfer.tk:6969",
      "udp://tracker.leechers-paradise.org:6969",
      "udp://zer0day.ch:1337"
    ],
    "urlList": []
  },
  "previous": 100,
  "peers": 202,
  "last_updated": "2016-12-27T03:41:09.159Z"
}